<?xml version="1.0" encoding="UTF-8"?>
<svg width="709px" height="410px" viewBox="0 0 709 410" version="1.1" xmlns="http://www.w3.org/2000/svg" xmlns:xlink="http://www.w3.org/1999/xlink">
    <title>logo__horizontal--on-light</title>
    <g id="logo__horizontal--on-light" stroke="none" stroke-width="1" fill="none" fill-rule="evenodd">
        <g id="Build-Partners-_-Logo-_-White">
            <polyline id="Fill-1" fill="#4D4D4D" points="204 0 0 410 155.148695 410 204 0"></polyline>
            <g id="Group-3" transform="translate(251.000000, 188.000000)" fill="#000000">
                <g id="Group" transform="translate(1.000000, 0.000000)">
                    <path d="M0,0 L13.3541004,0 C15.0438652,0 16.7527018,0.180045969 18.4806103,0.540137908 C20.2123331,0.900229846 21.7609663,1.51698306 23.1341386,2.38273602 C24.5034965,3.25231974 25.6211062,4.42836469 26.4869676,5.91087086 C27.352829,7.39337703 27.7838525,9.25895973 27.7838525,11.5037882 C27.7838525,13.8788627 27.0667514,15.9436452 25.6325493,17.7019665 C24.1983471,19.4602877 22.2797203,20.6133481 19.8728544,21.1649783 L19.8728544,21.2913935 C22.7832168,21.6323317 25.2015257,22.7662382 27.1201526,24.6931131 C29.0387794,26.6199881 30,29.2364008 30,32.5423512 C30,34.4079339 29.6109345,36.1126245 28.8289892,37.6602537 C28.0470439,39.2078829 26.9408773,40.5180046 25.5066751,41.5982804 C24.072473,42.682387 22.3216783,43.5174938 20.2542912,44.1112624 C18.186904,44.7050311 15.8639542,45 13.2930706,45 L0,45 L0,0 Z M4.5581691,19.7054567 L13.7355372,19.7054567 C14.8302606,19.7054567 15.9402416,19.5752107 17.0578512,19.3223802 C18.1754609,19.0695497 19.1977114,18.6328424 20.128417,18.01992 C21.0553083,17.4069975 21.8029243,16.5910445 22.3750795,15.572061 C22.9434202,14.5569081 23.2294978,13.3042479 23.2294978,11.8217417 C23.2294978,10.381374 22.9434202,9.1631906 22.3750795,8.16719162 C21.8029243,7.17119264 21.0324221,6.35523964 20.0635728,5.7193326 C19.0947235,5.08725632 17.9542276,4.63139525 16.6458996,4.35558015 C15.3375715,4.07976505 13.9453274,3.9418575 12.4691672,3.9418575 L4.5581691,3.9418575 L4.5581691,19.7054567 Z M4.5581691,41.0581425 L13.0375079,41.0581425 C14.6853147,41.0581425 16.2568341,40.9010811 17.7520661,40.5831276 C19.2511125,40.2651741 20.5594406,39.7556823 21.6770502,39.058483 C22.7946599,38.357453 23.6910362,37.4457308 24.3661793,36.3233166 C25.0413223,35.2009024 25.380801,33.8563037 25.380801,32.2895207 C25.380801,29.3206776 24.3776224,27.110326 22.3750795,25.6469737 C20.3687222,24.1836214 17.5308328,23.4557759 13.8614113,23.4557759 L4.5581691,23.4557759 L4.5581691,41.0581425 L4.5581691,41.0581425 Z" id="Fill-2"></path>
                    <path d="M73,46 C69.5783489,46 66.7791676,45.4195584 64.5985899,44.2548564 C62.414146,43.0939731 60.6820559,41.6275942 59.4023198,39.851901 C58.1187173,38.0800266 57.2294746,36.1477669 56.738458,34.055122 C56.2474414,31.9662959 56,29.9920305 56,28.1323261 L56,0 L60.6201956,0 L60.6201956,27.6244396 C60.6201956,29.4421385 60.8328406,31.2063756 61.2619968,32.9171509 C61.6872868,34.6279263 62.3832158,36.1477669 63.3459177,37.4766728 C64.3086195,38.8093973 65.5806232,39.8862693 67.1619286,40.7072887 C68.743234,41.5321268 70.6918353,41.9445459 73,41.9445459 C75.3081647,41.9445459 77.256766,41.5321268 78.8380714,40.7072887 C80.4193768,39.8862693 81.6913805,38.8093973 82.6540823,37.4766728 C83.6167842,36.1477669 84.3127132,34.6279263 84.7380032,32.9171509 C85.1671594,31.2063756 85.3798044,29.4421385 85.3798044,27.6244396 L85.3798044,0 L90,0 L90,28.1323261 C90,29.9920305 89.7525586,31.9662959 89.261542,34.055122 C88.7705254,36.1477669 87.8812827,38.0800266 86.5976802,39.851901 C85.3179441,41.6275942 83.5742552,43.0939731 81.3704799,44.2548564 C79.1705708,45.4195584 76.3791221,46 73,46" id="Fill-3"></path>
                    <polygon id="Fill-4" points="118 45 123 45 123 0 118 0"></polygon>
                    <polyline id="Fill-5" points="154.658171 40.9317272 176 40.9317272 176 45 150 45 150 0 154.658171 0 154.658171 40.9317272"></polyline>
                    <path d="M198,0 L213.098898,0 C215.925827,0 218.764373,0.467353367 221.614537,1.39822934 C224.460828,2.33293607 227.032172,3.73882693 229.324695,5.62739423 C231.613345,7.51213076 233.468275,9.86422065 234.88174,12.6798331 C236.295204,15.4992764 237,18.77075 237,22.5019154 C237,26.2713884 236.295204,29.5543543 234.88174,32.350813 C233.468275,35.1472716 231.613345,37.4917 229.324695,39.3764365 C227.032172,41.2611731 224.460828,42.6708947 221.614537,43.6017707 C218.764373,44.5326466 215.925827,45 213.098898,45 L198,45 L198,0 Z M202.627644,40.9317272 L211.813226,40.9317272 C215.240393,40.9317272 218.229967,40.4030816 220.778076,39.3419596 C223.326184,38.2846684 225.436699,36.8979314 227.105749,35.1817485 C228.778671,33.4655657 230.029491,31.5042138 230.865952,29.3015238 C231.69854,27.0988337 232.116771,24.8310207 232.116771,22.5019154 C232.116771,20.1689793 231.69854,17.904997 230.865952,15.6984762 C230.029491,13.4957862 228.778671,11.5382651 227.105749,9.82208223 C225.436699,8.10589938 223.326184,6.71533157 220.778076,5.65804035 C218.229967,4.59691836 215.240393,4.06827275 211.813226,4.06827275 L202.627644,4.06827275 L202.627644,40.9317272 L202.627644,40.9317272 Z" id="Fill-6"></path>
                    <path d="M266,41.5 C266,42.40625 265.675781,43.2148437 265.027344,43.9296875 C264.378906,44.640625 263.535156,45 262.5,45 C261.460938,45 260.621094,44.640625 259.972656,43.9296875 C259.324219,43.2148437 259,42.40625 259,41.5 C259,40.5898437 259.324219,39.78125 259.972656,39.0703125 C260.621094,38.3554687 261.460938,38 262.5,38 C263.535156,38 264.378906,38.3554687 265.027344,39.0703125 C265.675781,39.78125 266,40.5898437 266,41.5" id="Fill-7"></path>
                </g>
                <g id="Group-2" transform="translate(0.000000, 91.000000)">
                    <path d="M0,1 L14.8440034,1 C17.4541934,1 19.8126588,1.23367668 21.9116544,1.69719928 C24.0106499,2.16455265 25.8075759,2.92687495 27.3063052,3.98799694 C28.8050345,5.04528816 29.9629674,6.40137908 30.7762314,8.05243892 C31.5894953,9.70732953 32,11.6993275 32,14.0284328 C32,16.5299225 31.5275324,18.6253512 30.5864698,20.3223802 C29.6415346,22.0155784 28.367421,23.3831617 26.7602566,24.4212991 C25.1569648,25.4594365 23.282585,26.2102665 21.14099,26.6776198 C18.9955222,27.1411424 16.7261285,27.3748191 14.3289362,27.3748191 L8.09391262,27.3748191 L8.09391262,46 L0,46 L0,1 Z M13.7519061,20.6403337 C15.0763645,20.6403337 16.3427327,20.5445646 17.5393925,20.3530263 C18.739925,20.161488 19.8126588,19.8243807 20.7537214,19.3340427 C21.694784,18.8475355 22.446085,18.1809824 23.0037517,17.3343832 C23.5614184,16.4877841 23.836379,15.3845237 23.836379,14.0284328 C23.836379,12.7144803 23.5614184,11.6456968 23.0037517,10.8182515 C22.446085,9.99080616 21.706402,9.34723759 20.7847029,8.87988423 C19.8630038,8.41253086 18.813506,8.10606963 17.6362096,7.96050055 C16.4589132,7.81110071 15.2506354,7.7344854 14.0075033,7.7344854 L8.09391262,7.7344854 L8.09391262,20.6403337 L13.7519061,20.6403337 L13.7519061,20.6403337 Z" id="Fill-8"></path>
                    <path d="M65.6248748,1 L72.5671119,1 L92,46 L82.8230384,46 L78.6185309,35.7029029 L59.0627713,35.7029029 L54.984975,46 L46,46 L65.6248748,1 Z M75.8155259,28.8381714 L68.8732888,10.5347748 L61.8005008,28.8381714 L75.8155259,28.8381714 L75.8155259,28.8381714 Z" id="Fill-9"></path>
                    <path d="M112,1 L127.660722,1 C129.786682,1 131.843567,1.22218439 133.839052,1.66655316 C135.834537,2.11092194 137.607449,2.84259811 139.15395,3.85775092 C140.704289,4.87673449 141.94763,6.20984081 142.880135,7.86473142 C143.812641,9.51579127 144.280813,11.526943 144.280813,13.9020175 C144.280813,17.1658296 143.355982,19.8243807 141.510158,21.8776709 C139.664334,23.9347919 137.15079,25.3215289 133.965688,26.0417128 L146,46 L136.321896,46 L125.880135,26.9304503 L120.020316,26.9304503 L120.020316,46 L112,46 L112,1 Z M126.578555,20.3836724 C127.725959,20.3836724 128.873363,20.2993956 130.01693,20.1308419 C131.164334,19.9622882 132.192777,19.6443347 133.106095,19.1769814 C134.019413,18.709628 134.771558,18.0430748 135.366366,17.1734911 C135.961174,16.3077381 136.256659,15.1929854 136.256659,13.8368945 C136.256659,12.6110496 135.980361,11.6035584 135.431603,10.8182515 C134.879007,10.0367753 134.176749,9.40852984 133.328668,8.94500724 C132.480587,8.47765387 131.513544,8.15970035 130.431377,7.99114668 C129.34921,7.822593 128.297743,7.7344854 127.280813,7.7344854 L120.020316,7.7344854 L120.020316,20.3836724 L126.578555,20.3836724 L126.578555,20.3836724 Z" id="Fill-10"></path>
                    <polyline id="Fill-11" points="175.951356 7.99114668 162 7.99114668 162 1 198 1 198 7.99114668 184.048644 7.99114668 184.048644 46 175.951356 46 175.951356 7.99114668"></polyline>
                    <polyline id="Fill-12" points="219 1 229.706076 1 250.793683 34.6839193 250.925046 34.6839193 250.925046 1 259 1 259 46 248.745967 46 227.206317 11.2319741 227.078818 11.2319741 227.078818 46 219 46 219 1"></polyline>
                    <polyline id="Fill-13" points="285 1 314.852988 1 314.852988 7.99114668 293.021408 7.99114668 293.021408 19.4298119 313.705977 19.4298119 313.705977 26.168128 293.021408 26.168128 293.021408 38.8786073 316 38.8786073 316 46 285 46 285 1"></polyline>
                    <path d="M340,1 L355.66456,1 C357.786682,1 359.843567,1.22218439 361.839052,1.66655316 C363.834537,2.11092194 365.607449,2.84259811 367.157788,3.85775092 C368.704289,4.87673449 369.94763,6.20984081 370.880135,7.86473142 C371.816479,9.51579127 372.280813,11.526943 372.280813,13.9020175 C372.280813,17.1658296 371.359819,19.8243807 369.513995,21.8776709 C367.664334,23.9347919 365.15079,25.3215289 361.965688,26.0417128 L374,46 L364.321896,46 L353.880135,26.9304503 L348.024153,26.9304503 L348.024153,46 L340,46 L340,1 Z M354.582393,20.3836724 C355.725959,20.3836724 356.873363,20.2993956 358.020767,20.1308419 C359.164334,19.9622882 360.196614,19.6443347 361.106095,19.1769814 C362.019413,18.709628 362.775395,18.0430748 363.366366,17.1734911 C363.961174,16.3077381 364.260497,15.1929854 364.260497,13.8368945 C364.260497,12.6110496 363.984199,11.6035584 363.431603,10.8182515 C362.879007,10.0367753 362.180587,9.40852984 361.332506,8.94500724 C360.480587,8.47765387 359.517381,8.15970035 358.435214,7.99114668 C357.353047,7.822593 356.30158,7.7344854 355.280813,7.7344854 L348.024153,7.7344854 L348.024153,20.3836724 L354.582393,20.3836724 L354.582393,20.3836724 Z" id="Fill-14"></path>
                    <path d="M418.444658,10.4859041 C417.59384,9.39314647 416.388835,8.47553467 414.837344,7.74068373 C413.282002,7.00202528 411.715111,6.63269605 410.14052,6.63269605 C409.205005,6.63269605 408.26564,6.7507291 407.330125,6.97918017 C406.39461,7.21143876 405.539942,7.56934543 404.773821,8.05670771 C404.0077,8.54026248 403.380173,9.17231043 402.891242,9.94904407 C402.40231,10.7295852 402.155919,11.6662346 402.155919,12.7627997 C402.155919,13.771792 402.367661,14.6360985 402.794995,15.3519119 C403.222329,16.0677252 403.807507,16.6769281 404.550529,17.1833279 C405.297401,17.6897278 406.202117,18.1313999 407.264678,18.5083441 C408.331088,18.8890959 409.501444,19.2698477 410.779596,19.646792 C412.227141,20.1113091 413.728585,20.6367466 415.283927,21.2269119 C416.835419,21.8170771 418.263715,22.5938108 419.561116,23.5647278 C420.862368,24.5318373 421.924928,25.7540506 422.756497,27.2275599 C423.588065,28.7010693 424,30.5324854 424,32.7256157 C424,35.1243519 423.553417,37.2184867 422.66025,39.0080201 C421.767084,40.801361 420.573628,42.2824854 419.083734,43.4628159 C417.59384,44.6431465 415.846006,45.5264906 413.844081,46.1166559 C411.846006,46.7068211 409.736285,47 407.522618,47 C404.585178,47 401.709336,46.46314 398.898941,45.38942 C396.088547,44.3156999 393.790183,42.727965 392,40.6224076 L397.747834,35.3147278 C398.856593,36.8301199 400.334937,38.029488 402.186718,38.9166397 C404.042348,39.7999838 405.85948,40.2416559 407.649663,40.2416559 C408.585178,40.2416559 409.543792,40.1274303 410.525505,39.8951717 C411.503369,39.6629132 412.388835,39.2745463 413.174206,38.7262638 C413.963426,38.1779812 414.602502,37.492628 415.091434,36.6740117 C415.580366,35.8515878 415.826756,34.831173 415.826756,33.6089598 C415.826756,32.4286293 415.549567,31.4500972 414.995188,30.6695561 C414.440808,29.8928224 413.697786,29.2188918 412.758422,28.6477641 C411.822907,28.0804439 410.714148,27.5854666 409.439846,27.1666397 C408.161694,26.7440052 406.818094,26.3023331 405.412897,25.8378159 C404.050048,25.418989 402.687199,24.9125891 401.32435,24.3224238 C399.961501,23.7322586 398.737247,22.9517174 397.651588,21.9846079 C396.565929,21.0174984 395.684312,19.8257453 395.002887,18.4169637 C394.321463,17.0043746 393.978826,15.2453014 393.978826,13.139744 C393.978826,10.8666559 394.460058,8.9095917 395.418672,7.26474401 C396.377286,5.62370382 397.632339,4.26441996 399.18768,3.19069994 C400.739172,2.11697991 402.506256,1.31740117 404.488932,0.791963707 C406.467757,0.26271873 408.481232,0 410.525505,0 C412.823869,0 415.156882,0.399789371 417.516843,1.19936811 C419.880654,2.00275437 421.936477,3.20212249 423.684312,4.80127997 L418.444658,10.4859041" id="Fill-15"></path>
                </g>
            </g>
            <polygon id="Fill-16" fill="#12B7C5" points="134 410 204 410 204 0"></polygon>
        </g>
    </g>
</svg>