<svg width="114" height="38" viewBox="0 0 114 38" fill="none" xmlns="http://www.w3.org/2000/svg">
<path fill-rule="evenodd" clip-rule="evenodd" d="M0.573242 0.438965H4.15412C4.60723 0.438965 5.06545 0.48727 5.52878 0.58388C5.99314 0.68049 6.4084 0.84596 6.77662 1.07824C7.14381 1.31154 7.44349 1.62706 7.67567 2.02481C7.90785 2.42255 8.02343 2.92308 8.02343 3.52535C8.02343 4.16256 7.83114 4.71653 7.44656 5.18827C7.06198 5.66002 6.54751 5.96937 5.90211 6.11737V6.15129C6.68252 6.24276 7.33098 6.54698 7.84546 7.06395C8.35993 7.58091 8.61768 8.28288 8.61768 9.16984C8.61768 9.67036 8.51336 10.1277 8.30368 10.5429C8.094 10.9582 7.79739 11.3096 7.41281 11.5995C7.02823 11.8903 6.55876 12.1144 6.00439 12.2737C5.45002 12.433 4.82713 12.5121 4.13775 12.5121H0.573242V0.438965ZM1.79551 5.72578H4.2564C4.54995 5.72578 4.84759 5.69083 5.14728 5.623C5.44696 5.55517 5.72108 5.438 5.97064 5.27356C6.21919 5.10912 6.41966 4.8902 6.57308 4.61682C6.72548 4.34446 6.80219 4.00838 6.80219 3.61064C6.80219 3.2242 6.72548 2.89737 6.57308 2.63015C6.41966 2.36293 6.21305 2.14402 5.95326 1.97341C5.69346 1.80383 5.38764 1.68153 5.03681 1.60753C4.68599 1.53353 4.31266 1.49653 3.91683 1.49653H1.79551V5.72578ZM1.79551 11.4546H4.06922C4.51108 11.4546 4.93248 11.4124 5.33342 11.3271C5.73539 11.2418 6.08621 11.1051 6.3859 10.9181C6.68558 10.73 6.92594 10.4854 7.10698 10.1842C7.28802 9.88311 7.37905 9.52237 7.37905 9.10201C7.37905 8.30549 7.11005 7.71247 6.57307 7.31986C6.03507 6.92725 5.2741 6.73198 4.29015 6.73198H1.79551V11.4546V11.4546Z" fill="black"/>
<path fill-rule="evenodd" clip-rule="evenodd" d="M20.1481 12.7804C19.2306 12.7804 18.48 12.6247 17.8953 12.3122C17.3095 12.0008 16.8451 11.6073 16.5019 11.1309C16.1577 10.6556 15.9193 10.1371 15.7876 9.5757C15.656 9.01529 15.5896 8.48561 15.5896 7.98666V0.438965H16.8285V7.8504C16.8285 8.33807 16.8855 8.81141 17.0006 9.27039C17.1146 9.72938 17.3012 10.1371 17.5594 10.4937C17.8175 10.8512 18.1586 11.1402 18.5826 11.3604C19.0067 11.5817 19.5292 11.6924 20.1481 11.6924C20.767 11.6924 21.2896 11.5817 21.7136 11.3604C22.1376 11.1402 22.4787 10.8512 22.7368 10.4937C22.995 10.1371 23.1816 9.72938 23.2956 9.27039C23.4107 8.81141 23.4677 8.33807 23.4677 7.8504V0.438965H24.7066V7.98666C24.7066 8.48561 24.6403 9.01529 24.5086 9.5757C24.377 10.1371 24.1385 10.6556 23.7943 11.1309C23.4512 11.6073 22.9836 12.0008 22.3926 12.3122C21.8027 12.6247 21.0542 12.7804 20.1481 12.7804" fill="black"/>
<path fill-rule="evenodd" clip-rule="evenodd" d="M32.2148 12.5121H33.5556V0.438965H32.2148V12.5121Z" fill="black"/>
<path fill-rule="evenodd" clip-rule="evenodd" d="M42.0445 11.4206H47.7673V12.5121H40.7954V0.438965H42.0445V11.4206" fill="black"/>
<path fill-rule="evenodd" clip-rule="evenodd" d="M53.6665 0.438965H57.7152C58.4733 0.438965 59.2344 0.564352 59.9987 0.8141C60.7619 1.06487 61.4514 1.44206 62.0662 1.94875C62.6799 2.45441 63.1773 3.08546 63.5563 3.84087C63.9353 4.59731 64.1243 5.47502 64.1243 6.47606C64.1243 7.48739 63.9353 8.36818 63.5563 9.11845C63.1773 9.86872 62.6799 10.4977 62.0662 11.0034C61.4514 11.509 60.7619 11.8873 59.9987 12.137C59.2344 12.3867 58.4733 12.5121 57.7152 12.5121H53.6665V0.438965ZM54.9074 11.4207H57.3705C58.2895 11.4207 59.0911 11.2788 59.7744 10.9941C60.4577 10.7105 61.0236 10.3384 61.4712 9.87798C61.9197 9.41754 62.2552 8.89132 62.4794 8.30035C62.7027 7.70939 62.8148 7.10095 62.8148 6.47607C62.8148 5.85016 62.7027 5.24275 62.4794 4.65075C62.2552 4.05979 61.9197 3.5346 61.4712 3.07416C61.0236 2.61372 60.4577 2.24064 59.7744 1.95698C59.0911 1.67228 58.2895 1.53045 57.3705 1.53045H54.9074V11.4207V11.4207Z" fill="black"/>
<path fill-rule="evenodd" clip-rule="evenodd" d="M71.9007 11.5731C71.9007 11.8162 71.8138 12.0331 71.6399 12.2249C71.466 12.4157 71.2398 12.5121 70.9622 12.5121C70.6836 12.5121 70.4584 12.4157 70.2845 12.2249C70.1106 12.0331 70.0237 11.8162 70.0237 11.5731C70.0237 11.3289 70.1106 11.1119 70.2845 10.9212C70.4584 10.7294 70.6836 10.634 70.9622 10.634C71.2398 10.634 71.466 10.7294 71.6399 10.9212C71.8138 11.1119 71.9007 11.3289 71.9007 11.5731" fill="black"/>
<path fill-rule="evenodd" clip-rule="evenodd" d="M0.305176 25.1218H4.28557C4.98549 25.1218 5.6179 25.1845 6.18075 25.3089C6.74359 25.4343 7.22543 25.6388 7.62731 25.9235C8.02919 26.2071 8.33969 26.571 8.55777 27.0139C8.77584 27.4579 8.88592 27.9924 8.88592 28.6173C8.88592 29.2884 8.75923 29.8506 8.50688 30.3059C8.2535 30.7602 7.91185 31.1271 7.48089 31.4056C7.05097 31.6841 6.54836 31.8856 5.97409 32.0109C5.39879 32.1353 4.79026 32.198 4.14745 32.198H2.47554V37.195H0.305176V25.1218ZM3.99274 30.3912C4.34789 30.3912 4.68747 30.3655 5.00835 30.3141C5.33027 30.2627 5.61792 30.1723 5.87027 30.0407C6.12261 29.9102 6.32407 29.7313 6.47361 29.5042C6.62315 29.2771 6.69688 28.9811 6.69688 28.6173C6.69688 28.2647 6.62315 27.978 6.47361 27.756C6.32407 27.534 6.12573 27.3613 5.87857 27.2359C5.63142 27.1105 5.35 27.0283 5.03431 26.9893C4.71862 26.9492 4.39462 26.9286 4.06128 26.9286H2.47556V30.3912H3.99274V30.3912Z" fill="black"/>
<path fill-rule="evenodd" clip-rule="evenodd" d="M17.9023 25.1218H19.7638L24.9747 37.195H22.5139L21.3865 34.4324H16.1427L15.0492 37.195H12.6399L17.9023 25.1218ZM20.6349 32.5906L18.7733 27.6799L16.8768 32.5906H20.6349V32.5906Z" fill="black"/>
<path fill-rule="evenodd" clip-rule="evenodd" d="M30.3379 25.1218H34.5373C35.1073 25.1218 35.6589 25.1814 36.194 25.3007C36.7291 25.4199 37.2045 25.6162 37.6192 25.8885C38.0349 26.1619 38.3683 26.5196 38.6183 26.9636C38.8684 27.4066 38.9939 27.9461 38.9939 28.5833C38.9939 29.459 38.7459 30.1723 38.251 30.7232C37.756 31.2751 37.082 31.6471 36.2279 31.8403L39.4549 37.195H36.8597L34.0598 32.0788H32.4885V37.195H30.3379V25.1218ZM34.2471 30.3223C34.5548 30.3223 34.8624 30.2997 35.1691 30.2545C35.4768 30.2092 35.7525 30.1239 35.9974 29.9986C36.2424 29.8732 36.444 29.6943 36.6035 29.461C36.763 29.2288 36.8423 28.9297 36.8423 28.5659C36.8423 28.237 36.7682 27.9667 36.621 27.756C36.4728 27.5463 36.2845 27.3778 36.0571 27.2534C35.8297 27.128 35.5704 27.0427 35.2802 26.9975C34.99 26.9523 34.7081 26.9286 34.4354 26.9286H32.4885V30.3223H34.2471V30.3223Z" fill="black"/>
<path fill-rule="evenodd" clip-rule="evenodd" d="M47.4861 26.9975H43.7451V25.1218H53.3984V26.9975H49.6574V37.195H47.4861V26.9975" fill="black"/>
<path fill-rule="evenodd" clip-rule="evenodd" d="M59.0295 25.1218H61.9004L67.555 34.159H67.5902V25.1218H69.7555V37.195H67.0059L61.2301 27.867H61.1959V37.195H59.0295V25.1218" fill="black"/>
<path fill-rule="evenodd" clip-rule="evenodd" d="M76.7273 25.1218H84.7323V26.9975H78.8782V30.0664H84.4247V31.8743H78.8782V35.2844H85.0399V37.195H76.7273V25.1218" fill="black"/>
<path fill-rule="evenodd" clip-rule="evenodd" d="M91.4756 25.1218H95.676C96.2451 25.1218 96.7966 25.1814 97.3317 25.3007C97.8668 25.4199 98.3422 25.6162 98.7579 25.8885C99.1726 26.1619 99.506 26.5196 99.756 26.9636C100.007 27.4066 100.132 27.9461 100.132 28.5833C100.132 29.459 99.8847 30.1723 99.3897 30.7232C98.8937 31.2751 98.2197 31.6471 97.3656 31.8403L100.593 37.195H97.9975L95.1975 32.0788H93.6272V37.195H91.4756V25.1218ZM95.3858 30.3223C95.6925 30.3223 96.0002 30.2997 96.3078 30.2545C96.6145 30.2092 96.8913 30.1239 97.1352 29.9986C97.3801 29.8732 97.5828 29.6943 97.7412 29.461C97.9007 29.2288 97.981 28.9297 97.981 28.5659C97.981 28.237 97.9069 27.9667 97.7587 27.756C97.6106 27.5463 97.4233 27.3778 97.1959 27.2534C96.9674 27.128 96.7091 27.0427 96.419 26.9975C96.1288 26.9523 95.8468 26.9286 95.5731 26.9286H93.6272V30.3223H95.3858V30.3223Z" fill="black"/>
<path fill-rule="evenodd" clip-rule="evenodd" d="M112.51 27.6668C112.282 27.3736 111.959 27.1274 111.543 26.9303C111.126 26.7321 110.706 26.633 110.284 26.633C110.033 26.633 109.781 26.6647 109.53 26.726C109.279 26.7883 109.05 26.8843 108.844 27.0151C108.639 27.1448 108.471 27.3144 108.34 27.5228C108.209 27.7322 108.142 27.9835 108.142 28.2777C108.142 28.5484 108.199 28.7803 108.314 28.9723C108.428 29.1644 108.585 29.3278 108.785 29.4637C108.985 29.5995 109.227 29.718 109.512 29.8192C109.798 29.9213 110.112 30.0235 110.455 30.1246C110.843 30.2492 111.246 30.3902 111.663 30.5485C112.079 30.7069 112.462 30.9153 112.81 31.1758C113.159 31.4352 113.443 31.7631 113.666 32.1585C113.889 32.5538 114 33.0452 114 33.6336C114 34.2771 113.88 34.839 113.641 35.3191C113.401 35.8002 113.081 36.1976 112.682 36.5143C112.282 36.8309 111.813 37.0679 111.277 37.2263C110.741 37.3846 110.175 37.4633 109.582 37.4633C108.794 37.4633 108.023 37.3192 107.269 37.0312C106.516 36.7431 105.899 36.3171 105.419 35.7522L106.96 34.3282C107.258 34.7348 107.654 35.0565 108.151 35.2946C108.648 35.5316 109.136 35.6501 109.616 35.6501C109.866 35.6501 110.124 35.6194 110.387 35.5571C110.649 35.4948 110.886 35.3906 111.097 35.2435C111.309 35.0964 111.48 34.9125 111.611 34.6929C111.742 34.4722 111.808 34.1985 111.808 33.8706C111.808 33.5539 111.734 33.2913 111.585 33.0819C111.437 32.8735 111.237 32.6927 110.986 32.5395C110.735 32.3873 110.437 32.2545 110.096 32.1421C109.753 32.0287 109.393 31.9102 109.016 31.7856C108.65 31.6732 108.285 31.5374 107.919 31.379C107.554 31.2207 107.226 31.0113 106.935 30.7518C106.644 30.4924 106.407 30.1726 106.224 29.7947C106.042 29.4157 105.95 28.9437 105.95 28.3788C105.95 27.769 106.079 27.2439 106.336 26.8026C106.593 26.3623 106.929 25.9976 107.347 25.7096C107.763 25.4215 108.236 25.207 108.768 25.066C109.299 24.924 109.839 24.8535 110.387 24.8535C111.003 24.8535 111.629 24.9608 112.261 25.1753C112.895 25.3908 113.447 25.7126 113.915 26.1417L112.51 27.6668" fill="black"/>
</svg>
